<svg width="164" height="176" viewBox="0 0 164 176" fill="none" xmlns="http://www.w3.org/2000/svg">
<g clip-path="url(#clip0_676_3787)">
<path d="M52.1306 87.1499C51.7006 89.7199 52.1906 92.3299 53.5206 94.5499C48.7206 94.9799 44.1806 96.2899 39.8606 98.5099C35.2906 100.86 31.1106 103.53 27.2206 106.9C22.5806 110.93 19.9506 116.34 19.4906 122.48C19.0506 128.4 19.9606 134.36 21.9106 139.92C22.0506 140.33 22.2906 140.76 22.5706 140.9C22.3506 141.73 22.7106 142.76 22.1106 143.51C13.6306 141.77 6.13056 136.23 2.37056 128.2C-2.67944 117.42 0.590563 104.72 9.91056 97.4899C17.8706 91.3199 30.9106 88.3899 40.9406 87.2999C44.6206 86.8999 48.3706 86.9199 52.1306 87.1399V87.1499Z" fill="url(#paint0_linear_676_3787)"/>
<path d="M123.46 88.42C119.81 88.82 116.15 89 112.31 88.95C111.99 88.95 111.83 88.91 111.7 88.58C112.07 86.13 111.58 83.56 110.23 81.49C119.35 80.57 128.45 75.5 135.74 69.8C140.46 66.11 143.34 61.1 144.14 55.14C145.01 48.69 144.36 42.14 142.21 36.03C142.05 35.58 141.81 35.16 141.4 35L141.49 32.49C141.76 32.54 141.93 32.49 142 32.29C147.02 33.37 151.57 35.81 155.36 39.3C166.71 49.75 166.4 67.35 154.74 77.53C146.91 84.36 133.91 87.26 123.45 88.42H123.46Z" fill="url(#paint1_linear_676_3787)"/>
<path d="M61.89 52.1005C64.69 55.9105 67.06 60.1105 69.24 64.4605C69.34 64.6605 69.32 64.8405 69.28 65.0305C66.69 64.3105 63.93 64.8305 61.69 66.2905C61.5 66.2105 61.37 66.1505 61.27 66.0005C59.59 63.6305 57.69 61.6105 55.36 59.7805C50.58 56.0205 45.39 52.9305 39.65 50.8205C31.1 47.6805 24.39 49.1605 16.84 53.4905C13.02 55.6905 9.65999 58.3505 6.73998 61.6705C6.44998 62.0005 6.20998 62.4305 6.15998 62.7705C5.40998 62.8905 4.76998 64.0505 3.46999 64.1305C-0.700015 50.1705 5.88999 36.0305 19.17 30.8605C26.97 27.8205 35.49 28.9105 42.59 33.2705C49.92 37.7705 56.98 45.4105 61.89 52.1005Z" fill="url(#paint2_linear_676_3787)"/>
<path d="M103.4 52.3401C101.45 56.0801 99.6203 60.0201 97.2203 63.6601C94.8003 63.1801 92.3003 63.5601 89.9703 64.9601L89.0603 62.6201C89.5703 62.5501 89.5703 62.1701 89.7103 61.8601C92.4903 55.9801 93.7403 49.7301 93.8003 43.1601C93.8803 33.9401 92.7903 25.5401 85.6603 19.3101C80.1303 14.4801 73.2603 11.2301 66.1103 9.99009C65.0103 9.80009 64.7403 9.15009 63.8203 8.69009C68.2803 4.00009 74.2403 0.840093 80.9103 0.140093C94.0103 -1.23991 106.16 7.37009 109.18 20.0801C111.46 29.6801 107.68 41.7501 103.9 50.7801C103.66 51.3501 103.4 51.8001 103.39 52.3301L103.4 52.3401Z" fill="url(#paint3_linear_676_3787)"/>
<path d="M74.8007 113.06C74.3307 113.19 74.2507 113.58 74.0907 113.96C70.8807 121.67 69.8507 125.62 69.9807 134.4C70.0907 142.29 71.1207 149.94 76.9007 155.59C82.1407 160.71 90.0307 164.73 97.2807 165.77L99.5107 167.54C91.2007 176.05 78.2907 178.4 67.6307 172.69C59.1207 168.14 53.8507 159.52 53.9107 149.72C53.9607 140.52 57.1207 131.71 60.5407 123.57C62.1807 119.67 64.1007 115.8 66.5607 112.25C69.1207 112.8 71.8207 112.44 74.0407 110.91L74.8107 113.06H74.8007Z" fill="url(#paint4_linear_676_3787)"/>
<path d="M102.34 109.55C106.82 116.49 116.36 122.26 123.91 125.28C129.89 127.67 136.09 127.72 142.02 125.26C147.01 123.19 151.41 120.29 155.34 116.6C156.38 115.62 157.63 114.83 158.09 113.56L160.38 112.38C161.39 115.93 161.73 119.64 161.3 123.5C160.36 131.97 155.19 139.38 148.27 143.24C140.21 147.74 130.83 147.77 123.02 143.6C114.6 139.11 107.44 130.89 101.64 123.51C98.77 119.59 96.08 115.41 94 110.89C96.87 111.8 99.87 111.27 102.34 109.56V109.55Z" fill="url(#paint5_linear_676_3787)"/>
<path d="M123.46 88.4199C123.47 88.6499 123.67 88.7099 123.97 88.6599C132.38 89.7399 140.33 92.2099 147.62 96.3699C153.88 99.9499 158.45 105.59 160.38 112.37L158.09 113.55C151.33 115.08 143.34 111.63 137.39 108.06C128.37 102.64 118.86 98.5799 108.56 96.1899C107.83 96.0199 107.2 95.8799 106.6 95.4999C109.42 94.3199 111.25 91.6099 111.71 88.5799C111.84 88.8999 111.99 88.9399 112.32 88.9499C116.16 88.9899 119.82 88.8199 123.47 88.4199H123.46Z" fill="#FDC94E"/>
<path d="M94.001 110.88C96.081 115.4 98.771 119.58 101.641 123.5C104.171 129.71 106.111 136.02 106.911 142.78L107.181 147.77C107.591 155.28 104.581 162.33 99.501 167.53L97.271 165.76C95.341 163.48 93.961 160.75 93.201 157.71C92.361 154.34 91.821 150.94 91.941 147.4C92.311 136.73 91.361 126.2 88.291 115.99C90.381 114.67 91.891 112.68 92.511 110.1C93.051 110.24 93.831 110.49 94.011 110.87L94.001 110.88Z" fill="#FDC94C"/>
<path d="M66.1207 10.0004C71.2007 15.3804 72.0507 24.3404 71.7907 32.0504C71.4707 41.4104 72.3707 50.5204 74.9407 59.4804C75.0007 59.7004 75.1107 59.7504 75.2707 59.8504C73.1607 61.2004 71.7307 63.3804 71.0907 65.9204L69.2907 65.0304C69.3307 64.8404 69.3507 64.6604 69.2507 64.4604C67.0707 60.1204 64.7007 55.9204 61.9007 52.1004L59.7307 46.0904C57.5507 39.5504 56.3507 32.9004 56.5807 26.0104C56.8107 19.1204 59.3607 13.3904 63.8307 8.69043C64.7507 9.15043 65.0107 9.80043 66.1207 9.99043V10.0004Z" fill="#FECA4E"/>
<path d="M56.9709 80.5803C54.3909 81.8803 52.6109 84.2603 52.1209 87.1503C48.3609 86.9203 44.6109 86.9103 40.9309 87.3103C31.7909 86.0803 22.4809 83.6603 14.6909 78.7103C9.25094 75.2503 5.26094 70.1803 3.46094 64.1303C4.76094 64.0503 5.39094 62.8903 6.15094 62.7703C9.14094 62.3003 12.0909 62.3603 15.1409 63.1703C18.5809 64.0803 21.6809 65.4003 24.7709 67.1503L32.2209 71.3603C39.6809 75.2403 47.4709 78.0303 55.6509 80.0603C56.1809 80.1903 56.6709 80.1003 56.9709 80.5803Z" fill="#FDCA50"/>
<path d="M142.021 32.3003C141.961 32.5003 141.791 32.5503 141.511 32.5003L141.421 35.0103C139.881 41.7003 133.111 46.9903 126.731 50.3703C118.901 54.5203 111.771 59.5803 105.461 65.8703L103.361 67.7103C101.811 65.7203 99.7107 64.1503 97.2207 63.6603C99.6207 60.0203 101.441 56.0803 103.401 52.3403C105.591 49.7303 107.721 47.1603 110.271 44.7603C119.241 35.9803 129.351 29.5503 142.021 32.2903V32.3003Z" fill="#FEC94B"/>
<path d="M66.5511 112.26C64.0811 115.81 62.1611 119.68 60.5311 123.58C60.2811 123.45 60.1911 123.54 60.0911 123.7C54.6811 130.58 47.7811 137.19 40.1311 141.04C34.4811 143.88 28.2211 144.76 22.1211 143.51C22.7211 142.75 22.3611 141.73 22.5811 140.9C24.5711 133.33 31.9611 128.28 38.7011 124.56C44.7211 121.23 50.1311 117.35 55.2111 112.67L58.4411 109.69L60.2611 107.89C61.7511 110.06 63.9911 111.7 66.5711 112.26H66.5511Z" fill="#FDC94D"/>
<path d="M82.0812 58.3306L83.3212 58.5806C85.7212 59.0606 87.7112 60.5606 89.0612 62.6306L89.9712 64.9706C92.3012 63.5706 94.8012 63.1906 97.2212 63.6706C99.6412 64.1506 101.811 65.7206 103.361 67.7206C104.911 69.7206 105.611 72.2906 105.141 74.8006L104.581 76.5306C104.441 76.6906 104.211 76.9406 104.131 77.3606C106.751 77.9506 108.861 79.3706 110.241 81.5006C111.621 83.6306 112.081 86.1406 111.711 88.5906C111.261 91.6106 109.421 94.3206 106.601 95.5106L105.141 96.1206C106.471 98.1606 107.111 100.491 106.571 102.741L106.221 104.221C105.711 106.381 104.161 108.291 102.341 109.551C99.8612 111.261 96.8712 111.791 94.0012 110.881C93.8212 110.501 93.0512 110.241 92.5012 110.111C91.8812 112.691 90.3612 114.681 88.2812 116.001C86.3012 117.251 83.9312 117.651 81.5812 117.461L80.2512 117.211C77.9112 116.761 76.0912 115.061 74.7912 113.061L74.0212 110.911C71.8012 112.441 69.1012 112.801 66.5412 112.251C63.9812 111.701 61.7212 110.061 60.2312 107.881C58.7412 105.701 58.1512 103.211 58.8812 100.761L59.6812 98.9606C59.7412 98.8306 59.2612 98.6606 59.2012 98.6706C56.8812 97.9106 54.8612 96.5906 53.5112 94.5406C52.1912 92.3206 51.6912 89.7106 52.1212 87.1406C52.6012 84.2506 54.3912 81.8806 56.9712 80.5706L58.6012 79.9806C57.1912 77.8406 56.6612 75.4006 57.1712 73.0706L57.4412 71.8506C57.9512 69.5306 59.6912 67.5706 61.6912 66.2706C63.9312 64.8106 66.7012 64.2906 69.2812 65.0106L71.0812 65.9006C71.7312 63.3706 73.1512 61.1806 75.2612 59.8306C77.3712 58.4806 79.7312 57.8506 82.0712 58.3206L82.0812 58.3306ZM84.5212 67.5806C84.8812 66.5206 84.7212 65.3306 84.0112 64.4906C81.7412 61.8306 77.3012 61.9806 75.2612 64.8806C74.6012 65.8106 74.5712 66.9506 75.0312 67.9306C75.3412 68.5906 76.1012 69.3106 77.0412 69.5406C79.9212 70.2306 83.7112 69.9806 84.5212 67.5806ZM98.8512 75.0806C99.6012 74.4406 100.181 73.5306 100.111 72.2906C99.9012 68.7706 96.3412 66.2606 93.0012 67.3106C91.3612 67.8206 90.5512 69.5306 91.3112 71.1206C92.6612 73.9606 96.6412 76.9706 98.8512 75.0806ZM83.1212 77.9506C85.4212 79.9906 88.6912 79.5006 90.4512 77.2706C92.2112 75.0406 91.8612 71.8706 89.6012 70.1206C87.3412 68.3706 84.2012 68.6806 82.5412 70.6706C80.7112 72.8606 80.9012 75.9906 83.1212 77.9606V77.9506ZM74.0112 69.7306C71.0512 70.3306 69.3612 73.1206 69.9812 75.6906C70.6512 78.4906 73.2012 80.1706 75.8712 79.6706C78.7112 79.1406 80.5212 76.4906 79.9312 73.6906C79.3812 71.0506 76.8812 69.1406 74.0112 69.7206V69.7306ZM68.6512 70.8806C67.2112 69.1106 63.5612 69.4806 61.7812 71.9106C60.6812 73.4006 60.2912 75.1106 60.8212 76.8306C61.1412 77.8606 62.0512 78.5606 62.7812 78.7606C63.9112 79.0706 64.8012 78.6906 65.6212 78.0506C68.1812 76.0606 70.4412 73.0906 68.6412 70.8806H68.6512ZM98.3512 77.2606C96.1612 75.5406 93.2312 75.9806 91.5112 77.8606C89.7912 79.7406 89.7612 82.5106 91.4812 84.5106C93.5112 86.8606 96.9512 87.0606 99.0412 84.8806C101.131 82.7006 100.901 79.2706 98.3412 77.2606H98.3512ZM83.1412 84.6106C85.0112 83.1406 85.0712 80.7306 83.4912 79.1406C82.1412 77.7906 79.9712 77.7706 78.6112 79.0606C77.2512 80.3506 77.0412 82.4706 78.2712 83.9706C79.4012 85.3606 81.5112 85.8706 83.1412 84.6006V84.6106ZM69.5712 87.9606C72.2712 86.9006 73.5212 83.9606 72.4912 81.3706C71.4612 78.7806 68.5612 77.4806 65.8912 78.5606C63.2212 79.6406 61.8712 82.5006 62.9212 85.2706C63.8712 87.7606 66.8812 89.0206 69.5712 87.9706V87.9606ZM105.691 89.8806C108.071 87.7706 108.121 83.8606 105.661 81.7406C104.281 80.5506 101.891 80.6106 100.991 82.2306C99.7812 84.4106 99.7412 89.6306 102.341 90.5806C103.451 90.9906 104.691 90.7506 105.681 89.8706L105.691 89.8806ZM86.0912 90.1506C87.4512 91.1006 89.1912 91.1206 90.4412 90.1806C91.6912 89.2406 92.2112 87.7106 91.6312 86.0706C91.1912 84.8006 89.9712 83.8406 88.3212 83.7606C86.6712 83.6806 85.3012 84.6706 84.8612 86.0706C84.3912 87.5606 84.7512 89.2206 86.0912 90.1606V90.1506ZM77.5212 91.5606C79.5212 90.1706 79.5412 87.4106 77.8712 85.9306C76.3412 84.5706 73.8112 84.5606 72.5112 86.4006C71.4512 87.9106 71.6412 89.8406 72.7612 91.0206C73.8812 92.2006 75.9412 92.6606 77.5112 91.5606H77.5212ZM60.7412 85.1806C59.5112 84.9606 58.6412 85.2806 57.7912 86.1006C55.4012 88.4006 55.6612 92.5606 58.3812 94.5706C59.2312 95.2006 60.3412 95.2406 61.3312 94.9506C64.2012 94.1006 64.1012 85.7906 60.7412 85.1806ZM94.9612 97.7306C96.7912 98.1606 98.6912 97.5306 99.8412 96.2306C100.991 94.9306 101.321 93.2806 100.971 91.5406C100.701 90.2006 99.7212 88.8406 98.2312 88.1906C95.3812 86.9306 92.2012 88.2806 91.2412 91.0006C90.2312 93.8906 91.8012 96.9906 94.9612 97.7306ZM72.3912 97.9606C74.2912 95.5306 73.6512 92.2006 71.2312 90.5406C68.8112 88.8806 65.5812 89.3906 63.9712 91.9806C62.4812 94.3706 63.3212 97.3506 65.5912 98.8906C67.7012 100.321 70.7112 100.101 72.3912 97.9606ZM82.0212 90.5306C79.9212 90.9106 78.6912 92.8506 79.0912 94.7806C79.4912 96.7106 81.4412 98.0306 83.3412 97.6506C85.3412 97.2506 86.6112 95.3206 86.2212 93.3506C85.8312 91.3806 83.9812 90.1806 82.0212 90.5306ZM92.6612 97.9506C90.5912 95.6606 87.1512 95.5306 85.0812 97.6506C83.0112 99.7706 83.0912 103.131 85.3412 105.081C87.5912 107.031 90.7912 106.751 92.7712 104.431C94.3812 102.541 94.3112 99.7606 92.6612 97.9506ZM82.2712 102.941C82.8212 99.8606 80.7712 97.2906 78.0412 96.8706C75.0412 96.4106 72.4312 98.4906 72.2012 101.391C71.9712 104.291 74.0012 106.691 76.9712 106.951C79.5512 107.181 81.8012 105.551 82.2712 102.941ZM97.4112 106.281C100.891 106.491 103.541 103.321 103.151 100.061C102.991 98.7106 102.061 97.7906 101.091 97.4706C99.9012 97.0706 98.8412 97.4606 97.8812 98.1806C95.5612 99.9406 93.3812 102.811 94.7712 104.831C95.2712 105.561 96.1112 106.211 97.4012 106.291L97.4112 106.281ZM67.5012 100.401C66.3512 99.9806 65.3612 100.491 64.6812 101.221C64.0012 101.951 63.7112 102.861 63.8312 104.041C64.1512 107.071 67.1812 109.301 70.1812 108.851C71.2512 108.691 72.1112 107.931 72.5012 107.261C73.9212 104.821 70.3412 101.441 67.4912 100.411L67.5012 100.401ZM88.3012 111.161C89.0512 110.271 89.2412 109.091 88.8312 108.111C88.4612 107.241 87.6612 106.491 86.5412 106.281C83.5612 105.711 79.7012 106.111 79.1112 108.531C78.9012 109.391 79.0612 110.381 79.7112 111.231C81.7612 113.951 86.1112 113.781 88.3012 111.171V111.161Z" fill="#95C646"/>
<path d="M53.5111 94.5498C54.8511 96.5998 56.8711 97.9198 59.2011 98.6798C59.1811 98.8798 59.1611 99.0098 58.9711 99.1198C53.3311 102.49 47.5811 105.64 42.5011 109.9C48.1311 106.8 53.2411 103.37 58.9011 100.77C58.1711 103.22 58.8111 105.79 60.2511 107.89L58.4311 109.69L55.2011 112.67C50.1211 117.35 44.7111 121.24 38.6911 124.56C31.9511 128.28 24.5611 133.33 22.5711 140.9C22.2911 140.76 22.0511 140.33 21.9111 139.92C19.9711 134.36 19.0511 128.41 19.4911 122.48C19.9511 116.34 22.5811 110.94 27.2211 106.9C31.1011 103.53 35.2911 100.86 39.8611 98.5098C44.1811 96.2798 48.7211 94.9698 53.5211 94.5498H53.5111Z" fill="url(#paint6_linear_676_3787)"/>
<path d="M110.24 81.4998C108.86 79.3698 106.74 77.9498 104.13 77.3598C104.21 76.9398 104.44 76.6898 104.58 76.5298C105.57 76.3498 106.38 75.7498 107.3 75.1998C111.38 72.7998 115.38 70.4398 119.19 67.6598C119.28 67.3898 119.06 67.1598 118.74 67.3798C114.23 70.0898 109.77 72.6098 105.13 74.7898C105.6 72.2798 104.9 69.7098 103.35 67.7098L105.45 65.8698C111.76 59.5798 118.89 54.5198 126.72 50.3698C133.11 46.9898 139.88 41.6898 141.41 35.0098C141.81 35.1698 142.06 35.5998 142.22 36.0398C144.37 42.1498 145.01 48.6998 144.15 55.1498C143.35 61.0998 140.47 66.1098 135.75 69.8098C128.46 75.5098 119.37 80.5698 110.24 81.4998Z" fill="url(#paint7_linear_676_3787)"/>
<path d="M61.6902 66.2801C59.6902 67.5901 57.9402 69.5401 57.4402 71.8601C56.6202 71.6701 55.8702 71.1701 55.0802 70.7201L46.1902 66.0601C45.9802 66.0801 45.3802 66.1701 45.2802 65.5001L44.7502 65.5501C44.4402 65.5801 44.2502 65.2401 44.2302 64.8901C43.6602 65.3701 43.2902 64.8901 42.8402 65.0001C47.4402 67.5301 51.9402 70.0101 56.4202 72.8201C56.7102 73.0001 56.9402 73.0801 57.1802 73.0801C56.6702 75.4101 57.2002 77.8501 58.6102 79.9901L56.9802 80.5801C56.6802 80.1001 56.1902 80.1901 55.6602 80.0601C47.4702 78.0301 39.6802 75.2401 32.2302 71.3601L24.7802 67.1501C21.7002 65.4101 18.5902 64.0801 15.1502 63.1701C12.0902 62.3601 9.15016 62.3001 6.16016 62.7701C6.22016 62.4301 6.46016 62.0001 6.74016 61.6701C9.66016 58.3501 13.0202 55.6801 16.8402 53.4901C24.3902 49.1501 31.1002 47.6801 39.6502 50.8201C45.4002 52.9301 50.5902 56.0201 55.3602 59.7801C57.6902 61.6101 59.5902 63.6401 61.2702 66.0001C61.3702 66.1401 61.4902 66.2101 61.6902 66.2901V66.2801Z" fill="url(#paint8_linear_676_3787)"/>
<path d="M89.0613 62.6302C87.7113 60.5602 85.7113 59.0602 83.3213 58.5802C83.2113 53.5702 83.2913 48.0702 82.3413 43.3802C82.5913 43.2402 82.2313 43.0602 82.4313 42.6202C82.0613 42.7002 82.1713 42.8902 82.1413 43.0202C82.1013 43.2202 82.1413 43.3802 82.3413 43.3802C82.3613 48.3002 82.4913 53.2902 82.0713 58.3302C79.7413 57.8602 77.2813 58.5602 75.2613 59.8402C75.1013 59.7402 74.9913 59.6902 74.9313 59.4702C72.3613 50.5102 71.4613 41.4002 71.7813 32.0402C72.0413 24.3402 71.1913 15.3802 66.1113 9.99023C73.2613 11.2202 80.1313 14.4702 85.6613 19.3102C92.7913 25.5402 93.8713 33.9402 93.8013 43.1602C93.7513 49.7302 92.4913 55.9802 89.7113 61.8602C89.5613 62.1802 89.5713 62.5502 89.0613 62.6202V62.6302Z" fill="url(#paint9_linear_676_3787)"/>
<path d="M80.2505 117.21L80.6805 129.71C80.7005 130.24 80.5105 130.76 81.1705 130.96C81.1505 126.34 81.0405 121.93 81.5805 117.47C83.9305 117.66 86.3005 117.26 88.2805 116.01C91.3605 126.22 92.3005 136.75 91.9305 147.42C91.8105 150.96 92.3505 154.36 93.1905 157.73C93.9505 160.78 95.3405 163.5 97.2605 165.78C90.0105 164.74 82.1205 160.72 76.8805 155.6C71.1005 149.95 70.0705 142.3 69.9605 134.41C69.8405 125.63 70.8605 121.68 74.0705 113.97C74.2305 113.6 74.3105 113.21 74.7805 113.07C76.0805 115.07 77.8905 116.77 80.2405 117.22L80.2505 117.21Z" fill="url(#paint10_linear_676_3787)"/>
<path d="M106.61 95.5098C107.21 95.8898 107.84 96.0298 108.57 96.1998C118.87 98.5798 128.38 102.64 137.4 108.07C143.35 111.64 151.34 115.09 158.1 113.56C157.64 114.84 156.39 115.62 155.35 116.6C151.42 120.29 147.02 123.18 142.03 125.26C136.1 127.73 129.9 127.67 123.92 125.28C116.37 122.26 106.83 116.49 102.35 109.55C104.18 108.29 105.72 106.38 106.23 104.22L107.9 104.97C111.83 107.12 115.74 109.03 119.81 110.85C120.28 111.06 120.77 111.3 121.24 111.01C121.06 111.03 120.59 110.92 120.72 110.6C120.75 110.52 120.51 110.28 120.46 110.68C119.79 110.68 119.43 110.09 118.99 109.88C114.62 107.82 110.65 105.2 106.58 102.74C107.12 100.48 106.48 98.1498 105.15 96.1198L106.61 95.5098Z" fill="url(#paint11_linear_676_3787)"/>
<path d="M83.1199 77.9505C80.9099 75.9805 80.7099 72.8505 82.5399 70.6605C84.1999 68.6805 87.3499 68.3605 89.5999 70.1105C91.8499 71.8605 92.1599 75.0905 90.4499 77.2605C88.7399 79.4305 85.4099 79.9805 83.1199 77.9405V77.9505Z" fill="#C0D955"/>
<path d="M92.6614 97.9502C94.3014 99.7602 94.3814 102.54 92.7714 104.43C90.8014 106.75 87.5014 106.96 85.3414 105.08C83.1814 103.2 83.0414 99.7502 85.0814 97.6502C87.1214 95.5502 90.5814 95.6602 92.6614 97.9502Z" fill="#C2D956"/>
<path d="M72.3898 97.9598C70.7198 100.1 67.7098 100.32 65.5898 98.8898C63.3198 97.3498 62.4798 94.3698 63.9698 91.9798C65.5698 89.3998 68.8298 88.8998 71.2298 90.5398C73.6298 92.1798 74.2898 95.5298 72.3898 97.9598Z" fill="#C3DA57"/>
<path d="M69.5709 87.9599C66.8809 89.0199 63.8709 87.7499 62.9209 85.2599C61.8709 82.4899 63.1609 79.6599 65.8909 78.5499C68.6209 77.4399 71.4509 78.7499 72.4909 81.3599C73.5309 83.9699 72.2609 86.8899 69.5709 87.9499V87.9599Z" fill="#C1D956"/>
<path d="M82.2713 102.94C81.8013 105.55 79.5413 107.18 76.9713 106.95C74.0013 106.69 71.9713 104.26 72.2013 101.39C72.4313 98.5198 75.0413 96.4098 78.0413 96.8698C80.7713 97.2898 82.8313 99.8598 82.2713 102.94Z" fill="#C1D956"/>
<path d="M98.3501 77.2601C100.91 79.2701 101.14 82.7001 99.0501 84.8801C96.9601 87.0601 93.5101 86.8601 91.4901 84.5101C89.7701 82.5101 89.8101 79.7201 91.5201 77.8601C93.2301 76.0001 96.1701 75.5401 98.3601 77.2601H98.3501Z" fill="#C1D955"/>
<path d="M94.9599 97.7297C91.7999 96.9897 90.2199 93.8897 91.2399 90.9997C92.1999 88.2697 95.3799 86.9297 98.2299 88.1897C99.7199 88.8497 100.7 90.2097 100.97 91.5397C101.32 93.2797 101.01 94.9097 99.8399 96.2297C98.6699 97.5497 96.7899 98.1597 94.9599 97.7297Z" fill="#C2D955"/>
<path d="M74.011 69.7303C76.881 69.1503 79.381 71.0603 79.931 73.7003C80.511 76.4903 78.701 79.1503 75.871 79.6803C73.201 80.1803 70.651 78.5003 69.981 75.7003C69.361 73.1203 71.051 70.3403 74.011 69.7403V69.7303Z" fill="#C1D955"/>
<path d="M97.4105 106.28C96.1205 106.2 95.2805 105.55 94.7805 104.82C93.3905 102.8 95.5605 99.9301 97.8905 98.1701C98.8505 97.4501 99.9105 97.0601 101.1 97.4601C102.06 97.7801 102.99 98.7001 103.16 100.05C103.55 103.31 100.9 106.49 97.4205 106.27L97.4105 106.28Z" fill="#C2D956"/>
<path d="M68.65 70.88C70.44 73.09 68.19 76.06 65.63 78.05C64.8 78.69 63.92 79.07 62.79 78.76C62.05 78.56 61.14 77.87 60.83 76.83C60.3 75.11 60.69 73.39 61.79 71.91C63.58 69.49 67.23 69.11 68.66 70.88H68.65Z" fill="#C2D956"/>
<path d="M84.5197 67.58C83.7197 69.97 79.9197 70.23 77.0397 69.54C76.0997 69.31 75.3397 68.59 75.0297 67.93C74.5597 66.95 74.5997 65.81 75.2597 64.88C77.2997 61.99 81.7397 61.83 84.0097 64.49C84.7197 65.33 84.8797 66.51 84.5197 67.58Z" fill="#C0D955"/>
<path d="M60.7409 85.1799C64.1009 85.7899 64.2009 94.1099 61.3309 94.9499C60.3509 95.2399 59.2409 95.1999 58.3809 94.5699C55.6609 92.5599 55.3909 88.3999 57.7909 86.0999C58.6409 85.2799 59.5109 84.9599 60.7409 85.1799Z" fill="#C2D957"/>
<path d="M105.69 89.8805C104.7 90.7605 103.46 91.0005 102.35 90.5905C99.7501 89.6305 99.7901 84.4205 101 82.2405C101.9 80.6205 104.29 80.5605 105.67 81.7505C108.13 83.8705 108.07 87.7705 105.7 89.8905L105.69 89.8805Z" fill="#C1D955"/>
<path d="M98.851 75.0805C96.641 76.9705 92.661 73.9605 91.311 71.1205C90.561 69.5405 91.371 67.8305 93.001 67.3105C96.341 66.2605 99.901 68.7705 100.111 72.2905C100.181 73.5205 99.601 74.4305 98.851 75.0805Z" fill="#C1D956"/>
<path d="M88.3006 111.16C86.1106 113.77 81.7606 113.94 79.7106 111.22C79.0706 110.37 78.9006 109.38 79.1106 108.52C79.7006 106.11 83.5606 105.7 86.5406 106.27C87.6606 106.49 88.4706 107.23 88.8306 108.1C89.2406 109.08 89.0506 110.26 88.3006 111.15V111.16Z" fill="#C0D955"/>
<path d="M67.5002 100.4C70.3502 101.44 73.9202 104.82 72.5102 107.25C72.1202 107.93 71.2502 108.68 70.1902 108.84C67.2002 109.29 64.1702 107.07 63.8402 104.03C63.7102 102.85 64.0102 101.94 64.6902 101.21C65.3702 100.48 66.3502 99.97 67.5102 100.39L67.5002 100.4Z" fill="#C1D956"/>
<path d="M82.0197 90.5297C83.9797 90.1797 85.8497 91.4797 86.2197 93.3497C86.6097 95.3197 85.3397 97.2397 83.3397 97.6497C81.4397 98.0297 79.4997 96.7397 79.0897 94.7797C78.6797 92.8197 79.9197 90.9097 82.0197 90.5297Z" fill="#C2D955"/>
<path d="M77.5199 91.5598C75.9499 92.6498 73.9499 92.2498 72.7699 91.0198C71.5899 89.7898 71.4599 87.9098 72.5199 86.3998C73.8199 84.5498 76.3499 84.5698 77.8799 85.9298C79.5499 87.4198 79.5299 90.1698 77.5299 91.5598H77.5199Z" fill="#C1D955"/>
<path d="M86.09 90.1498C84.75 89.2198 84.4 87.5498 84.86 86.0598C85.3 84.6598 86.69 83.6598 88.32 83.7498C89.95 83.8398 91.19 84.7998 91.63 86.0598C92.2 87.7098 91.7 89.2298 90.44 90.1698C89.18 91.1098 87.45 91.0898 86.09 90.1398V90.1498Z" fill="#C0D955"/>
<path d="M83.1406 84.6102C81.5106 85.8802 79.4106 85.3702 78.2706 83.9802C77.0406 82.4802 77.2406 80.3702 78.6106 79.0702C79.9806 77.7702 82.1506 77.7902 83.4906 79.1502C85.0706 80.7302 85.0106 83.1502 83.1406 84.6202V84.6102Z" fill="#C1D955"/>
<path d="M58.8902 100.77C53.2302 103.37 48.1202 106.8 42.4902 109.9C47.5802 105.64 53.3202 102.49 58.9602 99.1197C59.1502 99.0097 59.1802 98.8797 59.1902 98.6797C59.2502 98.6797 59.7302 98.8397 59.6702 98.9697L58.8702 100.77H58.8902Z" fill="#F68A4A"/>
<path d="M104.58 76.52L105.14 74.79C109.78 72.61 114.24 70.09 118.75 67.38C119.07 67.16 119.29 67.39 119.2 67.66C115.39 70.44 111.39 72.8 107.31 75.2C106.39 75.74 105.58 76.35 104.59 76.53L104.58 76.52Z" fill="#F58549"/>
<path d="M106.23 104.22L106.58 102.74C110.65 105.19 114.62 107.82 118.99 109.88C119.43 110.09 119.79 110.69 120.46 110.68C120.51 110.28 120.75 110.52 120.72 110.6C120.58 110.92 121.06 111.02 121.24 111.01C120.77 111.3 120.28 111.06 119.81 110.85C115.74 109.03 111.83 107.12 107.9 104.97L106.23 104.22Z" fill="#F68949"/>
<path d="M57.4303 71.8596L57.1603 73.0797C56.9103 73.0797 56.6903 73.0096 56.4003 72.8196C51.9303 70.0096 47.4203 67.5296 42.8203 64.9996C43.2703 64.8896 43.6403 65.3696 44.2103 64.8896C44.2303 65.2296 44.4203 65.5697 44.7303 65.5497L45.2603 65.4996C45.3603 66.1796 45.9603 66.0796 46.1703 66.0596L55.0603 70.7197C55.8503 71.1697 56.6003 71.6696 57.4203 71.8596H57.4303Z" fill="#F68B4A"/>
<path d="M83.3201 58.5799L82.0801 58.3299C82.5001 53.2899 82.3701 48.2999 82.3501 43.3799C83.3001 48.0699 83.2201 53.5699 83.3301 58.5799H83.3201Z" fill="#F68949"/>
<path d="M81.5898 117.46C81.0498 121.92 81.1598 126.33 81.1798 130.95C80.5198 130.75 80.7098 130.24 80.6898 129.7L80.2598 117.2L81.5898 117.45V117.46Z" fill="#F68949"/>
<path d="M82.3398 43.3801C82.1498 43.3801 82.0998 43.2201 82.1398 43.0201C82.1698 42.9001 82.0598 42.7001 82.4298 42.6201C82.2298 43.0601 82.5898 43.2401 82.3398 43.3801Z" fill="#F68949"/>
</g>
<defs>
<linearGradient id="paint0_linear_676_3787" x1="18.1106" y1="94.8799" x2="39.0206" y2="124.92" gradientUnits="userSpaceOnUse">
<stop stop-color="#E65D4A"/>
<stop offset="1" stop-color="#FAA74B"/>
</linearGradient>
<linearGradient id="paint1_linear_676_3787" x1="124.3" y1="50.42" x2="145.47" y2="80.28" gradientUnits="userSpaceOnUse">
<stop stop-color="#FAA44A"/>
<stop offset="1" stop-color="#E75E4A"/>
</linearGradient>
<linearGradient id="paint2_linear_676_3787" x1="47" y1="39.6705" x2="24.74" y2="72.3805" gradientUnits="userSpaceOnUse">
<stop stop-color="#E65B47"/>
<stop offset="1" stop-color="#FAA54A"/>
</linearGradient>
<linearGradient id="paint3_linear_676_3787" x1="107.06" y1="32.1101" x2="69.2303" y2="32.8001" gradientUnits="userSpaceOnUse">
<stop stop-color="#E55345"/>
<stop offset="1" stop-color="#FAA64B"/>
</linearGradient>
<linearGradient id="paint4_linear_676_3787" x1="92.8107" y1="142.4" x2="55.5407" y2="144.73" gradientUnits="userSpaceOnUse">
<stop stop-color="#FAA64A"/>
<stop offset="1" stop-color="#E45649"/>
</linearGradient>
<linearGradient id="paint5_linear_676_3787" x1="137.68" y1="103.8" x2="117.16" y2="136.18" gradientUnits="userSpaceOnUse">
<stop stop-color="#F9A248"/>
<stop offset="1" stop-color="#E55748"/>
</linearGradient>
<linearGradient id="paint6_linear_676_3787" x1="31.5711" y1="106.68" x2="41.2711" y2="120.42" gradientUnits="userSpaceOnUse">
<stop stop-color="#F7954F"/>
<stop offset="1" stop-color="#FBB14A"/>
</linearGradient>
<linearGradient id="paint7_linear_676_3787" x1="121.6" y1="54.0798" x2="131.08" y2="69.4498" gradientUnits="userSpaceOnUse">
<stop stop-color="#FBB048"/>
<stop offset="1" stop-color="#F79650"/>
</linearGradient>
<linearGradient id="paint8_linear_676_3787" x1="43.3302" y1="54.7001" x2="31.5902" y2="72.4401" gradientUnits="userSpaceOnUse">
<stop stop-color="#F79650"/>
<stop offset="1" stop-color="#FBB24B"/>
</linearGradient>
<linearGradient id="paint9_linear_676_3787" x1="71.9513" y1="36.3102" x2="91.2413" y2="36.3202" gradientUnits="userSpaceOnUse">
<stop stop-color="#FBAF4C"/>
<stop offset="1" stop-color="#F79252"/>
</linearGradient>
<linearGradient id="paint10_linear_676_3787" x1="89.8605" y1="139.19" x2="72.3305" y2="140.22" gradientUnits="userSpaceOnUse">
<stop stop-color="#FAAF4B"/>
<stop offset="1" stop-color="#F79450"/>
</linearGradient>
<linearGradient id="paint11_linear_676_3787" x1="132.11" y1="104.1" x2="121.43" y2="121.34" gradientUnits="userSpaceOnUse">
<stop stop-color="#FBB049"/>
<stop offset="1" stop-color="#F79351"/>
</linearGradient>
<clipPath id="clip0_676_3787">
<rect width="163.7" height="175.81" fill="white"/>
</clipPath>
</defs>
</svg>
