<svg width="451" height="405" viewBox="0 0 451 405" fill="none" xmlns="http://www.w3.org/2000/svg">
<g clip-path="url(#clip0_676_3881)">
<path d="M229.185 0.45267C243.926 23.8978 241.637 54.1025 233.965 85.413C224.783 122.805 232.682 144.968 222.922 171.705C221.538 175.474 220.582 179.696 218.721 183.239C215.225 189.923 212.231 196.934 209.615 204.85C206.647 213.796 206.018 223.772 205.942 234.477C205.917 237.643 205.464 240.332 206.647 243.372C204.735 254.228 203.024 264.958 198.622 274.532C196.082 280.085 193.29 286.116 192.937 294.509C204.534 290.891 215.174 282.799 223.123 268.953L231.198 261.741C252.378 245.031 285.532 240.131 303.291 267.923C303.945 268.953 304.021 270.109 303.895 271.29C303.644 271.441 303.493 271.516 303.367 271.919C296.5 278.1 289.381 283.101 281.558 285.111C273.961 287.624 267.345 293.278 262.188 303.882C258.742 310.994 254.592 315.944 249.636 319.387C238.392 327.177 226.821 331.901 214.822 335.67C212.91 336.273 209.64 334.891 209.917 331.021C210.395 324.463 216.885 318.96 216.029 314.989C214.923 309.888 200.484 316.974 193.793 321.699L176.838 333.635C170.902 337.806 166.022 344.289 161.268 351.753C152.161 365.975 141.722 374.519 130.604 382.033L115.687 392.109L107.839 400.326C106.908 401.306 106.002 402.211 105.801 403.895L102.506 404.85L87.4382 404.749C86.6081 404.749 86.105 403.719 85.9793 402.613C88.7211 394.748 92.2931 388.038 95.9657 381.404C106.531 362.332 117.775 356.15 129.723 342.153C136.389 334.338 141.471 322.653 143.559 307.802C148.816 270.737 157.067 261.766 162.5 240.759C163.204 238.07 163.28 234.778 162.274 232.592C157.067 221.284 148.137 244.302 138.528 252.393C124.416 264.279 111.989 265.008 104.242 296.143C102.405 303.505 100.217 310.29 97.9529 316.623C96.7707 316.17 96.494 317.603 95.689 318.733C88.6708 328.835 80.1182 333.735 71.465 337.63C64.5222 340.771 59.0385 347.104 53.9824 356.175L38.1852 384.596C33.5567 392.939 27.5447 397.512 24.3752 404.171L19.7719 404.95L0.0253906 404.473C6.66625 372.082 15.244 350.019 30.3872 328.76L41.8578 312.652C49.9325 299.686 56.5985 285.689 61.6798 268.652L74.0811 226.888C78.4077 212.338 84.4197 201.055 92.4944 193.441L109.776 177.208C121.297 165.021 130.554 148.813 138.804 129.69L158.677 83.5534C161.117 77.9246 163.481 72.7732 166.097 67.3705L170.801 57.696L183.882 33.9744C188.787 25.0788 194.245 18.269 200.283 12.3888C209.414 3.49325 219.098 -1.10531 229.211 0.352155L229.185 0.45267ZM215.149 34.477C214.822 32.0395 212.986 30.4564 212.105 31.0344C211.124 31.6626 209.69 32.3159 208.81 33.9493L200.962 48.2978C198.295 53.1728 197.365 60.5355 198.924 63.2745C202.899 70.2101 217.136 49.2024 215.149 34.477ZM147.835 167.785L164.035 149.391C166.751 146.3 169.317 141.45 170.323 135.645C172.461 123.257 174.851 111.597 178.172 99.862C178.499 98.6809 178.272 96.2937 178.046 95.5398C176.562 90.9915 167.003 104.435 162.802 116.171C158.601 127.906 154.425 138.234 148.615 147.632C144.867 153.688 140.792 164.091 143.533 168.614C144.565 170.273 146.376 169.368 147.835 167.735V167.785ZM182.699 206.332C184.007 210.127 189.089 202.463 190.422 197.462C193.692 184.998 197.44 174.595 203.15 165.473C205.641 161.503 208.307 156.452 209.238 150.346C211.124 137.957 212.407 123.558 211.326 110.667C208.986 105.742 204.433 111.672 203.075 116.296L199.327 128.961C196.132 139.716 181.442 145.998 184.184 159.09C185.617 165.976 186.548 172.032 185.215 179.696C183.379 189.999 180.813 200.679 182.75 206.332H182.699ZM91.1109 270.989C96.016 258.123 101.852 248.297 109.549 241.211C118.756 232.743 127.258 215.178 122.152 209.825C118.58 206.081 112.065 215.404 102.934 220.932C95.6639 225.33 89.1236 234.2 85.9541 247.167C83.3129 257.947 81.1244 268.476 77.4015 278.578C75.9174 282.598 73.9553 286.016 74.1062 291.745C74.3829 302.676 84.8222 287.574 91.136 270.989H91.1109Z" fill="white"/>
<path d="M384.995 254.303C386.252 254.805 386.856 256.992 387.787 258.926C400.213 285.161 420.312 301.344 433.543 333.257C442.348 354.466 447.856 379.167 450.976 404.799L378.53 404.95C377.725 400.728 375.285 398.743 373.6 395.602L364.468 378.715C359.136 366.804 352.646 358.537 345.326 351.45C337.276 343.686 330.685 333.559 324.673 320.994C323.843 319.286 322.963 317.527 321.982 317.627C319.265 300.238 313.656 284.357 306.512 271.843C307.593 271.114 307.442 269.832 307.392 269.053C315.115 267.747 322.787 272.169 329.453 280.261C333.352 285.01 337.226 290.061 342.055 290.513C345.904 290.865 348.067 286.342 348.394 280.035C349.3 263.575 340.571 250.383 343.791 241.914C345.753 236.788 350.482 235.104 353.878 236.662C363.009 240.859 370.128 261.439 383.661 257.544C384.139 257.419 384.693 256.765 384.819 256.338C384.944 255.911 384.919 255.031 384.995 254.278V254.303ZM398.905 339.313C400.943 332.805 392.818 302.902 383.536 290.739L374.404 281.995C371.637 279.356 368.896 278.225 365.751 278.602C363.638 278.879 360.796 282.422 361.299 286.769C362.632 298.228 367.588 305.515 372.996 310.667L382.907 320.115L392.667 336.851C394.981 340.796 398.025 342.052 398.88 339.288L398.905 339.313Z" fill="#5795C7"/>
<path d="M303.366 271.918C302.259 279.055 299.819 284.884 296.7 290.237C292.902 296.77 289.531 303.681 285.582 309.109C279.092 318.054 273.86 329.287 271.017 343.912L265.961 370.096L262.766 375.448C261.735 377.283 259.27 377.157 258.264 374.845C257.056 372.131 256.905 368.362 256.654 365.447C255.975 357.381 256.226 349.365 254.415 340.444C243.925 345.847 233.411 348.812 222.871 352.782C214.519 355.923 207.627 363.336 202.068 374.745L191.603 396.255C190.044 399.471 188.434 402.336 186.447 404.698H109.121C107.587 404.698 106.832 404.648 105.775 403.894C105.977 402.211 106.882 401.306 107.813 400.326L115.661 392.109L130.578 382.032C141.696 374.519 152.161 365.975 161.242 351.752C165.996 344.289 170.901 337.806 176.812 333.634L193.767 321.698C200.458 316.974 214.897 309.888 216.004 314.989C216.859 318.934 210.369 324.462 209.891 331.021C209.614 334.916 212.859 336.273 214.796 335.67C226.795 331.9 238.366 327.176 249.61 319.386C254.566 315.944 258.716 311.018 262.163 303.882C267.294 293.277 273.935 287.623 281.532 285.111C289.355 283.125 296.499 278.1 303.341 271.918H303.366Z" fill="#C7E6F3"/>
<path d="M329.125 161.829C326.081 163.337 323.666 167.308 321.855 172.534C313.479 196.834 297.053 193.668 296.801 206.408C296.776 208.041 297.355 211.157 298.688 212.137C306.712 218.243 315.491 220.932 324.371 219.776C336.244 218.218 356.997 196.306 351.966 175.876C358.43 182.008 364.015 191.255 367.939 203.116L376.315 228.496L384.994 254.278C384.943 255.032 384.969 255.937 384.818 256.339C384.667 256.741 384.139 257.419 383.661 257.545C370.152 261.465 363.034 240.884 353.877 236.663C350.481 235.105 345.752 236.763 343.79 241.915C340.57 250.383 349.274 263.576 348.394 280.035C348.041 286.342 345.878 290.866 342.055 290.514C337.225 290.061 333.351 285.011 329.452 280.261C322.786 272.17 315.114 267.722 307.391 269.054C306.134 269.28 305.027 270.536 303.87 271.29C303.995 270.109 303.945 268.953 303.266 267.923C285.507 240.131 252.328 245.031 231.172 261.741L223.098 268.953C228.984 253.348 237.964 242.468 247.85 236.562C253.334 234.175 259.044 231.939 264.201 227.617C266.54 225.656 269.206 223.948 271.269 220.153L280.4 203.367C283.067 198.467 285.406 193.416 288.576 189.396C293.984 182.536 300.474 179.47 306.838 176.379C316.522 171.68 318.132 161.453 322.384 158.01C322.66 157.809 323.214 157.055 323.516 157.281L329.1 161.779L329.125 161.829Z" fill="#C7E6F3"/>
<path d="M291.543 97.4493C291.543 101.42 290.135 107.4 287.619 108.833C281.481 112.3 275.067 95.6149 271.143 103.128C269.432 106.42 267.998 111.672 265.106 112.2C259.27 113.28 253.887 99.4093 250.239 102.299C246.717 105.088 245.938 112.728 245.133 118.608L243.322 131.725C242.039 146.475 240.907 161.151 237.687 174.846C235.926 182.284 233.662 188.717 230.04 194.27L218.62 211.76C213.161 220.128 208.709 231.335 206.621 243.372C205.438 240.331 205.891 237.643 205.916 234.476C206.017 223.771 206.621 213.795 209.589 204.85C212.205 196.959 215.199 189.923 218.695 183.239C220.557 179.671 221.512 175.474 222.896 171.705C232.631 144.968 224.757 122.804 233.939 85.4126C241.636 54.1022 243.9 23.8974 229.159 0.452317L232.077 0C247.598 2.31184 261.332 18.4194 271.47 39.6029C277.633 52.494 291.568 87.4229 291.543 97.4493Z" fill="#C7E6F3"/>
<path d="M322.408 158.035C318.157 161.453 316.547 171.705 306.862 176.404C300.498 179.495 294.008 182.561 288.6 189.421C285.431 193.442 283.116 198.467 280.425 203.393L271.294 220.179C269.231 223.973 266.565 225.682 264.225 227.642C263.018 227.466 262.565 225.43 262.263 223.395C260.024 209.273 256.88 196.356 252.075 184.546C247.371 168.464 245.435 151.401 244.076 132.655L245.258 125.267C245.661 122.78 246.089 120.191 245.158 118.608C245.963 112.728 246.743 105.089 250.264 102.3C253.912 99.4098 259.295 113.256 265.131 112.2C268.024 111.673 269.457 106.421 271.168 103.129C275.092 95.6153 281.506 112.301 287.644 108.833C290.16 107.401 291.568 101.445 291.568 97.4497C292.046 96.6456 292.6 96.5702 293.053 97.6256L293.782 99.3344C299.819 118.03 309.78 145.923 320.094 154.115C321.15 154.944 322.207 156.226 322.433 158.06L322.408 158.035ZM290.587 157.96C292.021 154.065 286.739 126.624 279.268 125.267C275.998 124.664 278.337 145.647 281.758 156.804C286.009 156.176 289.154 161.905 290.587 157.96ZM269.86 157.332C272.878 153.512 270.916 145.772 270.338 140.847C269.684 135.168 269.181 127.303 265.332 126.046C262.967 125.267 262.364 131.524 261.911 133.937C260.452 141.676 262.112 146.777 264.753 152.054C265.81 154.19 267.621 160.121 269.835 157.332H269.86Z" fill="#5795C7"/>
<path d="M129.699 342.178C117.75 356.175 106.531 362.356 95.9411 381.429C96.1675 375.298 95.6644 368.186 93.325 363.286C92.2434 361.025 90.0297 359.994 88.4701 361.778C78.7101 372.936 70.3084 387.259 63.6927 404.522H36.123L49.6563 381.605C57.9825 368.186 66.4597 356.828 76.6474 348.41C86.005 340.67 92.5201 331.875 97.9283 316.622C100.167 310.264 102.381 303.48 104.217 296.142C111.965 265.008 124.391 264.279 138.503 252.393C138.578 253.574 139.107 253.624 139.585 253.524C140.163 253.398 140.666 253.021 141.245 252.242L154.325 234.426C156.464 231.536 159.13 230.028 161.017 234.903L155.659 243.975L145.571 261.263L130.076 285.714C127.611 289.609 122.806 287.623 118.958 293.303C117.096 303.932 114.53 313.808 111.839 324.186C111.487 325.593 113.298 326.975 114.128 325.895C117.448 321.598 119.939 308.405 125.221 298.127C125.85 296.896 126.932 293.428 128.416 294.609C128.969 301.947 130.755 310.717 129.171 317.703L124.014 340.494C123.611 342.304 124.492 343.887 125.423 343.635C125.926 343.51 126.353 343.434 127.309 342.404C127.536 342.052 128.064 340.771 128.391 340.695C128.693 340.62 129.221 341.474 129.674 342.153L129.699 342.178Z" fill="#6DA8D2"/>
<path d="M321.981 317.627L324.27 332.378C326.861 342.279 329.427 352.858 333.502 361.402C339.363 373.69 344.168 387.334 344.897 404.774L317.956 404.724C316.472 397.411 315.894 389.42 313.001 383.892L303.467 365.799C303.819 365.799 304.096 365.196 304.021 364.819L303.568 362.708C302.235 356.501 302.788 347.933 300.172 342.907L291.519 326.272C287.922 319.386 288.148 309.938 285.607 309.084C289.532 303.656 292.927 296.745 296.726 290.212C299.82 284.885 302.26 279.055 303.392 271.893C303.518 271.491 303.669 271.416 303.92 271.265C305.052 270.511 306.184 269.254 307.442 269.028C307.492 269.832 307.643 271.089 306.561 271.818C313.705 284.307 319.315 300.188 322.032 317.602L321.981 317.627Z" fill="#6DA8D3"/>
<path d="M256.654 365.447C255.523 365.774 256.327 368.161 256.227 369.091C254.994 379.595 252.73 388.666 250.542 398.19L249.687 404.874L186.473 404.699C188.485 402.336 190.07 399.472 191.629 396.255L202.094 374.745C207.653 363.312 214.545 355.924 222.897 352.783C233.437 348.812 243.951 345.847 254.441 340.444C256.252 349.365 256 357.381 256.68 365.447H256.654Z" fill="#5894C7"/>
<path d="M303.466 365.8C298.712 366.956 299.416 390.074 298.888 404.799L265.659 404.724L265.457 385.827C265.357 380.249 265.055 375.047 266.011 370.071L271.067 343.887C273.884 329.237 279.142 318.03 285.632 309.084C288.172 309.938 287.971 319.387 291.543 326.272L300.196 342.907C302.812 347.933 302.284 356.502 303.592 362.709L304.045 364.82C304.12 365.171 303.844 365.774 303.492 365.8H303.466Z" fill="#5795C7"/>
<path d="M351.966 175.876C356.997 196.281 336.244 218.218 324.371 219.776C315.517 220.932 306.713 218.243 298.688 212.137C297.38 211.132 296.776 208.041 296.802 206.407C297.053 193.642 313.479 196.833 321.856 172.534C323.667 167.307 326.082 163.337 329.125 161.829L343.64 169.569L351.966 175.901V175.876Z" fill="white"/>
<path d="M378.554 404.924L344.896 404.774C344.167 387.334 339.362 373.689 333.501 361.401C329.451 352.883 326.861 342.304 324.27 332.378L321.98 317.627C322.962 317.527 323.842 319.286 324.672 320.994C330.684 333.534 337.275 343.686 345.324 351.45C352.669 358.512 359.134 366.779 364.467 378.715L373.598 395.602C375.309 398.743 377.723 400.728 378.528 404.95L378.554 404.924Z" fill="#3A80B1"/>
<path d="M97.9527 316.648C92.5445 331.901 86.0294 340.721 76.6718 348.435C66.4841 356.828 57.9818 368.212 49.6807 381.631L36.1474 404.523C32.2736 404.523 28.3243 405.679 24.375 404.246C27.5445 397.587 33.5565 393.014 38.185 384.671L53.9822 356.251C59.0383 347.154 64.522 340.847 71.4647 337.705C80.118 333.785 88.6706 328.91 95.6888 318.809C96.4938 317.653 96.7705 316.22 97.9527 316.698V316.648Z" fill="#C6E5F2"/>
<path d="M95.9652 381.429C92.2926 388.038 88.7206 394.747 85.9788 402.638C85.199 404.899 83.6645 404.899 82.1301 404.874L63.7168 404.547C70.3325 387.284 78.7342 372.961 88.4943 361.803C90.0539 360.019 92.2675 361.05 93.3491 363.311C95.6885 368.211 96.1916 375.298 95.9652 381.454V381.429Z" fill="#5894C6"/>
<path d="M303.467 365.799L313.001 383.892C315.918 389.42 316.472 397.411 317.956 404.723L298.889 404.799C299.417 390.048 298.713 366.955 303.467 365.799Z" fill="#3B80B1"/>
<path d="M266.011 370.096C265.055 375.047 265.357 380.273 265.458 385.852L265.659 404.749L249.686 404.9L250.541 398.215C252.754 388.692 254.993 379.62 256.226 369.116C256.326 368.212 255.521 365.824 256.653 365.473C256.905 368.388 257.056 372.157 258.263 374.871C259.295 377.208 261.76 377.308 262.766 375.474L265.961 370.121L266.011 370.096Z" fill="#6EA9D3"/>
<path d="M247.876 236.562C237.99 242.467 229.009 253.348 223.123 268.953C215.174 282.774 204.534 290.865 192.938 294.509C193.29 286.116 196.082 280.085 198.622 274.531C202.999 264.957 204.735 254.227 206.647 243.372C208.76 231.335 213.187 220.128 218.646 211.76L230.066 194.27C233.688 188.717 235.977 182.284 237.713 174.846C238.342 174.871 238.543 175.75 238.468 177.132C237.386 192.612 248.857 200.251 246.92 230.983C246.769 233.27 246.593 235.481 247.876 236.562Z" fill="#5894C6"/>
<path d="M129.698 342.178C129.22 341.499 128.717 340.645 128.415 340.72C128.088 340.796 127.56 342.077 127.333 342.429C126.377 343.459 125.95 343.51 125.447 343.66C124.516 343.912 123.635 342.328 124.038 340.519L129.195 317.727C130.779 310.742 128.993 301.972 128.44 294.634C126.956 293.478 125.874 296.921 125.245 298.152C119.963 308.43 117.472 321.597 114.152 325.919C113.322 327 111.486 325.618 111.863 324.211C114.529 313.807 117.12 303.957 118.982 293.327C122.83 287.648 127.635 289.633 130.1 285.739L145.596 261.288L155.683 244L161.041 234.928C159.154 230.053 156.488 231.536 154.349 234.451L141.269 252.267C140.69 253.046 140.212 253.423 139.609 253.549C139.131 253.649 138.628 253.599 138.527 252.418C148.136 244.326 157.066 221.283 162.273 232.616C163.279 234.828 163.179 238.12 162.5 240.783C157.091 261.791 148.815 270.762 143.558 307.827C141.445 322.703 136.389 334.363 129.723 342.178H129.698Z" fill="#5894C6"/>
<path d="M182.698 206.333C180.761 200.679 183.352 189.999 185.164 179.696C186.522 172.057 185.591 165.976 184.132 159.091C181.39 145.973 196.081 139.716 199.275 128.961L203.023 116.296C204.382 111.673 208.935 105.742 211.274 110.667C212.356 123.559 211.073 137.957 209.186 150.346C208.256 156.477 205.589 161.503 203.099 165.473C197.389 174.595 193.666 184.998 190.371 197.462C189.063 202.463 183.956 210.127 182.648 206.333H182.698Z" fill="#6DA8D2"/>
<path d="M91.1103 270.988C84.7964 287.598 74.3572 302.675 74.0805 291.744C73.9295 286.015 75.8916 282.597 77.3757 278.577C81.0987 268.45 83.2871 257.946 85.9284 247.166C89.123 234.2 95.6633 225.329 102.908 220.932C112.039 215.403 118.554 206.08 122.126 209.825C127.233 215.177 118.73 232.742 109.524 241.21C101.826 248.297 95.9903 258.122 91.0851 270.988H91.1103Z" fill="#C8E5F2"/>
<path d="M147.834 167.784C146.4 169.418 144.564 170.322 143.532 168.664C140.765 164.141 144.865 153.712 148.614 147.681C154.424 138.283 158.65 127.83 162.801 116.22C166.951 104.611 176.56 91.0411 178.045 95.5894C178.296 96.3432 178.523 98.7305 178.17 99.9115C174.85 111.647 172.435 123.306 170.322 135.695C169.316 141.5 166.775 146.324 164.033 149.44L147.834 167.835V167.784Z" fill="#C8E5F1"/>
<path d="M215.148 34.4767C217.135 49.2021 202.898 70.2097 198.923 63.2742C197.364 60.5352 198.269 53.1724 200.961 48.2975L208.809 33.949C209.689 32.3156 211.148 31.6622 212.104 31.034C212.985 30.4561 214.821 32.0643 215.148 34.4767Z" fill="#C8E5F2"/>
<path d="M398.905 339.314C398.05 342.078 394.981 340.821 392.692 336.876L382.932 320.14L373.021 310.692C367.613 305.541 362.657 298.253 361.324 286.795C360.821 282.422 363.664 278.879 365.777 278.628C368.921 278.226 371.688 279.382 374.43 282.02L383.561 290.765C392.843 302.902 400.968 332.83 398.931 339.339L398.905 339.314Z" fill="#C7E6F3"/>
<path d="M264.201 227.616C259.069 231.938 253.359 234.175 247.85 236.562C246.567 235.481 246.743 233.27 246.894 230.983C248.831 200.251 237.36 192.612 238.442 177.132C238.543 175.725 238.316 174.871 237.688 174.846C240.907 161.15 242.014 146.475 243.322 131.725L245.133 118.607C246.064 120.191 245.636 122.779 245.234 125.267L244.052 132.654C245.41 151.4 247.322 168.463 252.051 184.545C256.855 196.356 260 209.272 262.239 223.394C262.566 225.43 262.993 227.465 264.201 227.641V227.616Z" fill="#6EA8D2"/>
<path d="M290.587 157.959C289.128 161.904 286.009 156.15 281.758 156.803C278.337 145.646 275.997 124.664 279.267 125.267C286.738 126.624 292.021 154.064 290.587 157.959Z" fill="#C4E7F5"/>
<path d="M269.861 157.332C267.648 160.121 265.837 154.19 264.78 152.054C262.139 146.777 260.479 141.676 261.938 133.937C262.39 131.524 262.994 125.292 265.359 126.046C269.207 127.303 269.71 135.168 270.365 140.847C270.943 145.772 272.905 153.512 269.887 157.332H269.861Z" fill="#6AA7D2"/>
</g>
<defs>
<clipPath id="clip0_676_3881">
<rect width="451" height="405" fill="white"/>
</clipPath>
</defs>
</svg>
