<svg xmlns="http://www.w3.org/2000/svg" width="400" height="170" viewBox="0 0 400 170">
<defs>
  <linearGradient id="gold" x1="0" y1="0" x2="0" y2="1">
    <stop offset="0" stop-color="#FFE464"/><stop offset="0.45" stop-color="#F0BC28"/><stop offset="1" stop-color="#D08018"/>
  </linearGradient>
  <filter id="shadow" x="-20%" y="-20%" width="140%" height="150%"><feDropShadow dx="0" dy="4" stdDeviation="4" flood-color="#371200" flood-opacity="0.72"/></filter>
</defs>
<g fill="url(#gold)" stroke="#7A4818" stroke-width="9" paint-order="stroke" filter="url(#shadow)">
  <g transform="translate(78.562 74) scale(0.089888 -0.089888)"><path transform="translate(0 0)" d="M354 368Q507 221 571 147Q604 110 604.0 84.5Q604 59 564.0 24.5Q524 -10 498.5 -10.0Q473 -10 437 32L217 283V88Q217 64 215.5 53.0Q214 42 206 27Q192 0 128 0Q58 0 46 38Q40 54 40 89V645Q40 668 41.5 679.5Q43 691 51 706Q65 733 129 733Q199 733 212 696Q217 679 217 644V453Q353 606 437 704Q472 745 498.0 745.0Q524 745 564.0 710.5Q604 676 604.0 650.5Q604 625 574 590Q516 523 394 406Z"/><path transform="translate(639 0)" d="M680 696Q686 679 686 644V342Q686 210 604 102Q564 51 501.0 19.5Q438 -12 361.5 -12.0Q285 -12 222.5 20.0Q160 52 121 104Q40 210 40 344V645Q40 669 41.5 680.5Q43 692 51.0 707.0Q59 722 78.0 728.0Q97 734 129.0 734.0Q161 734 180.0 728.0Q199 722 206 707Q218 684 218 644V344Q218 283 248 228Q263 200 293.0 183.0Q323 166 364 166Q437 166 473.0 220.0Q509 274 509 345V651Q509 690 519.0 706.0Q529 722 548.0 728.0Q567 734 595.5 734.0Q624 734 641.0 729.0Q658 724 667.0 717.0Q676 710 680 696Z"/><path transform="translate(1365 0)" d="M217 177H525Q548 177 559.5 175.5Q571 174 586 166Q613 152 613 88Q613 18 576 6Q559 0 524 0H128Q58 0 46 38Q40 54 40 89V645Q40 696 59.0 714.5Q78 733 131 733H525Q548 733 559.5 731.5Q571 730 586 722Q613 708 613 644Q613 574 576 562Q559 556 524 556H217V455H415Q438 455 449.5 453.5Q461 452 476 444Q503 430 503 366Q503 296 465 284Q448 278 413 278H217Z"/><path transform="translate(2003 0)" d="M654 696Q659 679 659 644V89Q659 66 657.5 54.5Q656 43 648 28Q634 1 570 1Q500 1 488 38Q482 55 482 90V293H217V89Q217 66 215.5 54.5Q214 43 206 28Q192 1 128 1Q58 1 46 38Q40 55 40 90V645Q40 668 41.5 679.5Q43 691 51 706Q65 733 129 733Q199 733 212 696Q217 679 217 644V440H482V645Q482 668 483.5 679.5Q485 691 493.0 706.0Q501 721 520.0 727.0Q539 733 568.0 733.0Q597 733 614.0 728.0Q631 723 640.0 716.0Q649 709 654 696Z"/></g>
  <g transform="translate(20.000 154) scale(0.089888 -0.089888)"><path transform="translate(0 0)" d="M562 393Q621 323 621 236Q619 136 552.5 68.5Q486 1 391 1H128Q58 1 46 39Q40 56 40 91V646Q40 670 41.5 681.0Q43 692 51 707Q65 734 129 734H381Q473 734 535 670Q600 605 600 514Q600 448 562 393ZM444 246Q444 270 438.5 284.0Q433 298 420 304Q400 312 364.0 312.0Q328 312 310.0 326.0Q292 340 292.0 383.5Q292 427 310.5 441.0Q329 455 372 455Q412 455 420 476Q423 487 423.0 512.0Q423 537 406.5 547.0Q390 557 357 557H217V178H381Q444 178 444 246Z"/><path transform="translate(646 0)" d="M463 681 733 123Q750 89 750 72Q750 36 692 7Q658 -10 638.5 -10.0Q619 -10 606.5 -1.0Q594 8 588.5 18.0Q583 28 573 48L521 156H244L192 48Q182 28 176.5 19.0Q171 10 158.5 0.5Q146 -9 126.5 -9.0Q107 -9 73 8Q15 36 15 72Q15 89 32 123L302 682Q313 705 335.5 719.0Q358 733 383 733Q437 733 463 681ZM382 441 316 304H449Z"/><path transform="translate(1411 0)" d="M354 368Q507 221 571 147Q604 110 604.0 84.5Q604 59 564.0 24.5Q524 -10 498.5 -10.0Q473 -10 437 32L217 283V88Q217 64 215.5 53.0Q214 42 206 27Q192 0 128 0Q58 0 46 38Q40 54 40 89V645Q40 668 41.5 679.5Q43 691 51 706Q65 733 129 733Q199 733 212 696Q217 679 217 644V453Q353 606 437 704Q472 745 498.0 745.0Q524 745 564.0 710.5Q604 676 604.0 650.5Q604 625 574 590Q516 523 394 406Z"/><path transform="translate(2050 0)" d="M217 177H525Q548 177 559.5 175.5Q571 174 586 166Q613 152 613 88Q613 18 576 6Q559 0 524 0H128Q58 0 46 38Q40 54 40 89V645Q40 696 59.0 714.5Q78 733 131 733H525Q548 733 559.5 731.5Q571 730 586 722Q613 708 613 644Q613 574 576 562Q559 556 524 556H217V455H415Q438 455 449.5 453.5Q461 452 476 444Q503 430 503 366Q503 296 465 284Q448 278 413 278H217Z"/><path transform="translate(2688 0)" d="M601 124Q616 88 616 72Q616 34 554 8Q522 -6 502.5 -6.0Q483 -6 470.5 3.5Q458 13 452 23Q442 42 374 204L343 202H217V89Q217 66 215.5 54.5Q214 43 206 28Q192 1 128 1Q58 1 46 38Q40 55 40 90V645Q40 668 41.5 679.5Q43 691 51 706Q65 733 129 733H345Q433 733 516 669Q556 638 582.0 585.0Q608 532 608 467Q608 354 533 281Q555 228 601 124ZM217 379H345Q374 379 403.0 401.0Q432 423 432.0 467.0Q432 511 403.0 533.5Q374 556 343 556H217Z"/><path transform="translate(3319 0)" d="M622 719Q671 685 671 653Q671 634 648 600L432 277V86Q432 63 430.5 51.5Q429 40 421.0 25.0Q413 10 394.0 4.0Q375 -2 343.0 -2.0Q311 -2 292.0 4.0Q273 10 265.0 25.5Q257 41 255.5 52.5Q254 64 254 88V277L38 600Q15 634 15 653Q15 685 59.0 714.5Q103 744 122.0 744.0Q141 744 152 736Q169 725 188 695L343 447L498 695Q517 725 531.0 734.5Q545 744 563.5 744.0Q582 744 622 719Z"/></g>
</g>
</svg>
